# xmcd CD database file
#
# Track frame offsets:
#	150
#	21312
#	37103
#	55215
#	68792
#	86391
#	101777
#	115759
#	126340
#	143264
#	160863
#	175061
#	189529
#	207722
#	220300
#	234066
#	253285
#	274879
#	295312
#	306325
#
# Disc length: 4331 seconds
#
# Revision: 8
# Processed by: cddbd v1.5.2PL0 Copyright (c) Steve Scherf et al.
# Submitted via: CDex 1.70beta2
#
DISCID=2e10e914
DTITLE=Bee Gees - As 20 Mais de Bee Gees
DYEAR=1990
DGENRE=Blues
TTITLE0=Stayin Alive-Bee Gees
TTITLE1=Night Fever-Bee Gees
TTITLE2=More Than a Woman-Bee Gees
TTITLE3=To Love Somebody-Bee Gees
TTITLE4=Tomorrow Tomorrow-Bee Gees
TTITLE5=Don t Forget to Remember-Bee Gees
TTITLE6=I Started a Joke-Bee Gees
TTITLE7=Massachussets
TTITLE8=It Doens t Matter Much to Me-Bee Gees
TTITLE9=How Can You Mend a Broken Heart-Bee Gees
TTITLE10=Method to My Madness-Bee Gees
TTITLE11=Words-Bee Gees
TTITLE12=How Deep is Your Love-Bee Gees
TTITLE13=First of May-Bee Gees
TTITLE14=Cherry Red-Bee Gees
TTITLE15=My World-Bee Gees
TTITLE16=Too Much Heaven-Bee Gees
TTITLE17=Lamplight-Bee Gees
TTITLE18=When the Swallows Fly-Bee Gees
TTITLE19=Immortality-Bee Gees e Celine Dion
EXTD=0\nMelodia YEAR: 1990
EXTT0=
EXTT1=
EXTT2=
EXTT3=
EXTT4=
EXTT5=
EXTT6=
EXTT7=
EXTT8=
EXTT9=
EXTT10=
EXTT11=
EXTT12=
EXTT13=
EXTT14=
EXTT15=
EXTT16=
EXTT17=
EXTT18=
EXTT19=
PLAYORDER=
